<svg width="799" height="531" viewBox="0 0 799 531" fill="none" xmlns="http://www.w3.org/2000/svg">
<path fill-rule="evenodd" clip-rule="evenodd" d="M309 0.608078C292.916 2.51208 287.46 3.37108 280.5 5.09608C231.568 17.2191 189.924 50.3521 167.5 95.0001C161.913 106.124 158.917 114.97 154.427 133.595C147.346 162.968 144.669 166.569 127.698 169.553C101.838 174.1 81.252 182.34 62 195.851C51.85 202.973 36.286 219.219 28.729 230.577C8.914 260.358 -1.311 298.778 0.271001 337.5C1.125 358.41 5.779 376.208 16.017 397.718C43.282 455.003 95.125 493.013 162.858 505.38L166.215 505.993L165.501 496.017C165.108 490.529 164.048 477.191 163.144 466.375L161.5 446.71L151.496 444.468C86.363 429.871 51.242 385.379 56.006 323.5C59.527 277.766 77.51 247.079 109.325 232.516C118.12 228.491 124.141 226.759 139 223.981C159.662 220.118 173.165 213.15 185.218 200.131C195.949 188.54 201.252 176.526 208.446 147.5C213.784 125.964 217.94 116.262 227.045 104.083C241.087 85.2991 260.047 71.0841 281.049 63.5931C295.473 58.4471 305.577 56.6801 320.5 56.6921C351.674 56.7171 381.843 66.6231 400.723 83.0341C408.459 89.7581 414.009 97.6601 421.074 112.009C424.924 119.828 430.348 129.77 433.126 134.102C442.454 148.643 457.178 159.639 474.377 164.907C484.219 167.921 501.25 169.225 512.877 167.854C523.424 166.61 526.874 167.111 543 172.226C555.849 176.302 561.568 179.339 574.501 188.956C594.483 203.814 600.743 205.741 633 206.968C645.375 207.439 657.3 208.34 659.5 208.972C678.483 214.417 691.183 220.206 707.898 231.031C723.607 241.205 735.537 254.305 740.587 266.926L742.288 271.178L769.894 270.465C785.077 270.073 797.685 269.585 797.91 269.382C798.853 268.533 792.427 254.368 786.196 243.557C775.319 224.687 767.528 214.488 752.52 199.477C733.122 180.074 717.392 170.054 692.909 161.505C671.055 153.874 664.926 152.808 638.924 152.122L615.348 151.5L606.924 145.26C587.866 131.143 572.616 123.343 550.413 116.357L538.5 112.609L515 112.554L491.5 112.5L486.314 109.766L481.128 107.031L471.636 87.7661C460.832 65.8371 453.804 55.7651 440.554 43.2231C412.815 16.9661 373.258 2.45108 324.5 0.639076C317.9 0.394076 310.925 0.380078 309 0.608078ZM279.5 312.575C258.983 315.45 250.076 317.916 237.5 324.205C199.776 343.07 179.038 382.846 181.301 432C183.489 479.544 205.974 510.973 247.829 524.996C270.008 532.427 303.614 532.709 334 525.72L339.5 524.455L339.775 507.611C340.018 492.706 339.87 490.836 338.493 491.364C329.081 494.976 308.516 497.987 293.208 497.994C273.667 498.003 262.035 494.935 248.778 486.275C240.243 480.699 234.966 474.594 229.958 464.5C223.198 450.876 221.673 443.24 221.673 423C221.673 402.669 223.169 395.33 230.231 381C235.886 369.524 247.148 358.081 258.058 352.726C269.578 347.071 279.097 345 293.561 345C305.825 345 323.479 347.383 333.25 350.358L338 351.804V335.441V319.077L332.75 317.509C323.206 314.658 310.687 312.944 296.5 312.547C288.8 312.331 281.15 312.344 279.5 312.575ZM380 421.5V527H399H418V486V445H431.336H444.672L473.5 486L502.328 527H525.164C537.724 527 548 526.803 548 526.562C548 526.322 534.246 507.158 517.436 483.976C500.625 460.795 486.645 441.238 486.368 440.517C486.033 439.644 487.643 438.628 491.182 437.479C513.048 430.377 528.312 415.451 533.598 396C535.923 387.446 535.951 370.827 533.654 362.113C526.784 336.043 504.407 320.799 467.576 317.098C461.568 316.494 439.406 316 418.326 316H380V421.5ZM582.245 421.25L582.5 526.5L601.862 526.772L621.224 527.044L620.692 449.272C620.4 406.497 619.847 370.262 619.464 368.75C619.08 367.238 619.174 366 619.672 366C620.17 366 624.426 377.363 629.129 391.25C633.833 405.137 639.024 420.1 640.665 424.5C642.307 428.9 651.453 453.775 660.989 479.779L678.329 527.057L690.838 526.779L703.347 526.5L726.129 464.5C738.66 430.4 751.465 394.625 754.586 385C757.706 375.375 760.648 367.076 761.123 366.557C761.607 366.028 761.66 374.581 761.243 386.057C760.834 397.301 760.5 433.5 760.5 466.5V526.5L779.75 526.772L799 527.043V421.522V316L771.75 316.016L744.5 316.032L730.576 354.766C722.918 376.07 713.384 402.587 709.389 413.694C705.395 424.801 699.792 441.451 696.939 450.694C694.085 459.937 691.402 468.151 690.976 468.946C690.462 469.905 689.477 467.883 688.052 462.946C683.266 446.364 674.145 419.872 655.799 369.263L636.5 316.025L609.245 316.013L581.991 316L582.245 421.25ZM418 380.648V413.297L438.75 412.689C460.829 412.043 469.564 410.72 478.38 406.683C490.65 401.066 495.504 393.051 495.45 378.5C495.42 370.694 495.054 368.804 492.693 364.255C486.272 351.881 472.823 348.082 435.25 348.026L418 348V380.648Z" fill="#DEE9ED"/>
</svg>
